HIERARCHY
ROOT Hips
{
	OFFSET 0.000000 0.000000 0.000000
	CHANNELS 6 Xposition Yposition Zposition Xrotation Yrotation Zrotation
	JOINT LeftUpLeg_virtual
	{
		OFFSET 0.000000 0.000000 0.000000
		CHANNELS 3 Xrotation Yrotation Zrotation
		JOINT LeftUpLeg
		{
			OFFSET 11.394100 -6.187798 -0.413800
			CHANNELS 3 Xrotation Yrotation Zrotation
			JOINT LeftLeg
			{
				OFFSET 0.430247 -32.302673 3.732800
				CHANNELS 3 Xrotation Yrotation Zrotation
				JOINT LeftFoot
				{
					OFFSET -0.430247 -48.264931 -6.423300
					CHANNELS 3 Xrotation Yrotation Zrotation
					JOINT LeftToeBase
					{
						OFFSET 4.230900 -16.068199 23.438400
						CHANNELS 3 Xrotation Yrotation Zrotation
						JOINT LeftToe_End
						{
							OFFSET 4.510700 0.695400 19.974600
							CHANNELS 3 Xrotation Yrotation Zrotation
							End Site
							{
								OFFSET 0 0 0
							}
						}
					}
				}
			}
		}
	}
	JOINT RightUpLeg_virtual
	{
		OFFSET 0.000000 0.000000 0.000000
		CHANNELS 3 Xrotation Yrotation Zrotation
		JOINT RightUpLeg
		{
			OFFSET -11.333700 -6.187798 -0.413800
			CHANNELS 3 Xrotation Yrotation Zrotation
			JOINT RightLeg
			{
				OFFSET -0.430392 -32.302628 3.733000
				CHANNELS 3 Xrotation Yrotation Zrotation
				JOINT RightFoot
				{
					OFFSET 0.430392 -48.264973 -6.423500
					CHANNELS 3 Xrotation Yrotation Zrotation
					JOINT RightToeBase
					{
						OFFSET -4.230900 -16.068199 23.438400
						CHANNELS 3 Xrotation Yrotation Zrotation
						JOINT RightToe_End
						{
							OFFSET -4.510700 0.695400 19.974600
							CHANNELS 3 Xrotation Yrotation Zrotation
							End Site
							{
								OFFSET 0 0 0
							}
						}
					}
				}
			}
		}
	}
	JOINT Spine_virtual
	{
		OFFSET 0.000000 0.000000 0.000000
		CHANNELS 3 Xrotation Yrotation Zrotation
		JOINT Spine
		{
			OFFSET -0.002400 12.777504 0.315300
			CHANNELS 3 Xrotation Yrotation Zrotation
			JOINT Spine1
			{
				OFFSET -0.002067 5.816869 0.032633
				CHANNELS 3 Xrotation Yrotation Zrotation
				JOINT Spine1_split
				{
					OFFSET -0.002067 5.816869 0.032633
					CHANNELS 3 Xrotation Yrotation Zrotation
					JOINT Spine2
					{
						OFFSET -0.002067 5.816869 0.032633
						CHANNELS 3 Xrotation Yrotation Zrotation
						JOINT Neck_virtual
						{
							OFFSET 0.000000 0.000000 0.000000
							CHANNELS 3 Xrotation Yrotation Zrotation
							JOINT Neck
							{
								OFFSET -0.003700 21.199493 -0.826900
								CHANNELS 3 Xrotation Yrotation Zrotation
								JOINT Head
								{
									OFFSET 0.000000 20.442200 4.834800
									CHANNELS 3 Xrotation Yrotation Zrotation
									JOINT HeadTop_End
									{
										OFFSET 0.000000 34.668396 4.968400
										CHANNELS 3 Xrotation Yrotation Zrotation
										End Site
										{
											OFFSET 0 0 0
										}
									}
								}
							}
						}
						JOINT LeftShoulder_virtual
						{
							OFFSET 0.000000 0.000000 0.000000
							CHANNELS 3 Xrotation Yrotation Zrotation
							JOINT LeftShoulder
							{
								OFFSET 3.288150 8.794197 -1.372250
								CHANNELS 3 Xrotation Yrotation Zrotation
								JOINT LeftShoulder_split
								{
									OFFSET 3.288150 8.794197 -1.372250
									CHANNELS 3 Xrotation Yrotation Zrotation
									JOINT LeftArm
									{
										OFFSET 11.953299 -2.279007 -0.146200
										CHANNELS 3 Xrotation Yrotation Zrotation
										JOINT LeftForeArm
										{
											OFFSET 18.448900 0.000000 0.000000
											CHANNELS 3 Xrotation Yrotation Zrotation
											JOINT LeftHand
											{
												OFFSET 29.527798 0.000000 0.000000
												CHANNELS 3 Xrotation Yrotation Zrotation
												End Site
												{
													OFFSET 0 0 0
												}
											}
										}
									}
								}
							}
						}
						JOINT RightShoulder_virtual
						{
							OFFSET 0.000000 0.000000 0.000000
							CHANNELS 3 Xrotation Yrotation Zrotation
							JOINT RightShoulder
							{
								OFFSET -3.249400 8.794197 -1.372250
								CHANNELS 3 Xrotation Yrotation Zrotation
								JOINT RightShoulder_split
								{
									OFFSET -3.249400 8.794197 -1.372250
									CHANNELS 3 Xrotation Yrotation Zrotation
									JOINT RightArm
									{
										OFFSET -11.953299 -2.279007 -0.146200
										CHANNELS 3 Xrotation Yrotation Zrotation
										JOINT RightForeArm
										{
											OFFSET -18.448900 0.000000 0.000000
											CHANNELS 3 Xrotation Yrotation Zrotation
											JOINT RightHand
											{
												OFFSET -29.527802 0.000000 0.000000
												CHANNELS 3 Xrotation Yrotation Zrotation
												End Site
												{
													OFFSET 0 0 0
												}
											}
										}
									}
								}
							}
						}
					}
				}
			}
		}
	}
}
MOTION
Frames: 10
Frame Time: 0.03333333
3.521070 91.075760 119.592072 0.000000 0.000000 0.000000 4.393249 -4.016497 -2.940260 -54.737659 1.512609 8.644336 37.491178 -1.987839 3.395099 4.326546 -11.435067 -3.380071 4.885069 -4.265411 -0.885229 0.000000 0.000000 0.000000 4.807440 -0.234103 -2.648705 -25.255372 -0.146897 6.612589 45.037188 -0.103921 -2.995391 -24.833627 -0.843259 -2.152509 4.367526 -0.206616 -1.923957 0.000000 0.000000 0.000000 2.633859 1.232114 -1.833066 17.235042 3.069422 -0.424685 18.826317 6.873502 3.778336 0.989370 -4.113408 1.976919 0.000000 0.000000 0.000000 17.839991 7.839284 2.849813 -46.314963 20.699139 -27.802442 39.808733 -39.988531 40.873949 0.000000 0.000000 0.000000 19.510816 7.147253 3.426470 -2.140313 -12.631024 -7.574714 -4.137226 3.792871 -5.975685 -11.537910 -1.054254 -57.624762 -1.589022 -68.966674 -3.778353 0.000000 0.000000 0.000000 18.137607 8.044383 3.509485 0.013841 19.647055 6.788026 -2.411767 4.788803 8.568735 -56.450933 6.177285 31.868034 -170.326695 81.726902 169.705967 0.000000 0.000000 0.000000 
3.202269 91.447914 118.145615 0.000000 0.000000 0.000000 2.206223 -4.051597 -3.798684 -51.832810 0.963048 10.517188 35.771453 0.859400 3.223827 0.384593 -8.914689 -4.932035 3.490540 -4.584265 1.011149 0.000000 0.000000 0.000000 2.894886 -0.780105 -3.475191 -24.852717 -0.897280 7.454544 44.491675 0.325555 -2.855744 -23.098814 -0.707243 -2.822945 4.628739 -0.070792 -1.927287 0.000000 0.000000 0.000000 0.674702 1.270518 -2.882203 17.126325 3.021699 0.171995 18.051294 6.566301 3.748549 0.912760 -4.275018 1.780458 0.000000 0.000000 0.000000 17.023581 7.627006 2.813100 -46.897312 19.524212 -27.040179 40.321445 -38.439393 40.253191 0.000000 0.000000 0.000000 18.712509 6.874331 3.388079 -1.708704 -11.608670 -7.106691 -4.018499 3.860993 -5.848446 -14.038731 -0.969967 -59.514546 -0.333058 -63.249266 -2.741610 0.000000 0.000000 0.000000 17.319944 7.775280 3.524987 -0.076238 17.348247 8.530914 -1.835065 4.560296 8.264245 -59.569167 7.513901 30.977435 -169.844825 82.342520 169.421900 0.000000 0.000000 0.000000 
2.885593 91.627556 116.701263 0.000000 0.000000 0.000000 0.259906 -3.934410 -4.465933 -48.826546 1.007996 12.266768 35.149615 3.331426 3.015913 -3.767891 -7.179375 -6.204719 1.827452 -5.032605 3.636100 0.000000 0.000000 0.000000 1.195421 -1.046427 -4.124958 -24.636202 -1.012122 8.247545 44.505451 0.906562 -2.923146 -21.557627 -0.857342 -3.341438 4.232873 -0.061976 -1.938998 0.000000 0.000000 0.000000 -1.154910 1.518657 -3.793185 16.997078 2.962974 0.777703 17.317420 6.133909 3.645779 0.837058 -4.682950 1.529617 0.000000 0.000000 0.000000 16.243225 7.257890 2.739874 -47.417813 18.131335 -25.998454 40.350258 -36.961746 38.893604 0.000000 0.000000 0.000000 17.982146 6.477112 3.277786 -1.253352 -10.619331 -6.694371 -3.944810 3.987841 -5.659314 -16.509424 -0.540987 -61.046195 0.680011 -57.754092 -1.939875 0.000000 0.000000 0.000000 16.634248 7.367373 3.436901 -0.053520 15.051534 10.208834 -1.362684 4.444977 8.103586 -63.976968 8.212923 30.275100 -170.116339 82.612709 169.856327 0.000000 0.000000 0.000000 
2.614684 91.672470 115.231674 0.000000 0.000000 0.000000 -1.286874 -3.603227 -5.037119 -45.988186 1.065346 13.735186 36.825129 5.035331 2.706231 -6.928493 -6.450186 -7.504074 0.337835 -5.492486 6.229926 0.000000 0.000000 0.000000 -0.270046 -1.060747 -4.721622 -24.735393 -0.713213 9.072288 45.056518 1.616344 -3.105891 -20.369728 -1.162913 -3.689516 3.531279 -0.165407 -1.783378 0.000000 0.000000 0.000000 -2.662276 1.950097 -4.619417 16.763704 2.888021 1.431560 16.580334 5.579450 3.486008 0.590889 -4.977356 1.303881 0.000000 0.000000 0.000000 15.474342 6.731660 2.623888 -47.732593 16.488403 -24.730182 40.013287 -35.625276 37.030451 0.000000 0.000000 0.000000 17.267972 5.956675 3.123583 -0.792492 -9.667314 -6.334038 -3.861324 4.128757 -5.447448 -18.412030 0.199766 -62.179385 1.468375 -53.217672 -1.347400 0.000000 0.000000 0.000000 16.019585 6.813632 3.264996 0.091810 12.795687 11.581539 -0.869475 4.412798 7.968579 -69.476261 8.102076 29.803807 -171.692801 81.946260 171.543643 0.000000 0.000000 0.000000 
2.428136 91.656563 113.697586 0.000000 0.000000 0.000000 -2.386715 -2.960377 -5.677045 -43.551188 0.540454 14.842016 41.229628 6.207599 2.196657 -8.151385 -6.509073 -8.416478 -0.636497 -5.665097 7.573181 0.000000 0.000000 0.000000 -1.463240 -0.707113 -5.358543 -24.831120 -0.198799 9.983645 45.781197 2.220032 -3.286582 -19.780549 -1.531273 -4.228275 3.293141 -0.330823 -1.391634 0.000000 0.000000 0.000000 -3.829152 2.516728 -5.430309 16.387661 2.755276 2.149601 15.799175 4.928238 3.306987 0.320690 -5.099240 1.141525 0.000000 0.000000 0.000000 14.706690 6.084079 2.475728 -47.723187 14.627081 -23.323945 39.376153 -34.592938 34.971272 0.000000 0.000000 0.000000 16.524599 5.339319 2.961618 -0.355674 -8.859687 -5.985908 -3.672089 4.248103 -5.253083 -19.469746 1.197806 -62.944353 2.108322 -50.153717 -0.887607 0.000000 0.000000 0.000000 15.401453 6.123414 3.054979 0.336425 10.614431 12.446243 -0.150494 4.342557 7.842649 -75.955440 7.285251 29.530999 -173.900113 79.966120 173.808029 0.000000 0.000000 0.000000 
2.350373 91.605667 112.091171 0.000000 0.000000 0.000000 -3.142810 -2.232172 -6.439475 -41.763048 -0.849842 15.909186 48.249624 7.125668 1.544822 -6.659401 -6.827584 -8.336422 -0.393333 -5.296217 6.457921 0.000000 0.000000 0.000000 -2.372840 -0.060373 -6.087873 -24.771040 0.319880 10.947667 46.373115 2.613253 -3.383568 -19.814698 -1.874705 -5.024540 3.704484 -0.486536 -0.856396 0.000000 0.000000 0.000000 -4.638181 3.105281 -6.284065 15.861636 2.522258 2.925795 14.958128 4.197936 3.149164 0.071844 -4.911601 1.085896 0.000000 0.000000 0.000000 13.944876 5.359028 2.323632 -47.349371 12.618630 -21.925252 38.426057 -34.096748 32.984322 0.000000 0.000000 0.000000 15.712608 4.661275 2.841783 0.035431 -8.268823 -5.621225 -3.328948 4.237235 -5.158224 -19.528445 2.305610 -63.371779 2.608609 -48.867651 -0.526795 0.000000 0.000000 0.000000 14.717103 5.344988 2.856144 0.641051 8.538165 12.647262 0.789044 4.315068 7.647245 -83.099975 6.051214 29.345976 -175.502804 76.914337 175.421838 0.000000 0.000000 0.000000 
2.343559 91.421906 110.691124 0.000000 0.000000 0.000000 -3.685930 -1.833150 -7.252695 -40.435116 -3.018261 17.055438 56.654551 7.892546 0.916398 -2.603786 -6.862502 -7.252629 1.546301 -4.415499 2.530308 0.000000 0.000000 0.000000 -2.971885 0.681307 -6.915276 -24.579575 0.757031 11.821154 46.494372 2.824365 -3.360262 -19.995345 -2.141065 -5.665303 3.934460 -0.581425 -0.362887 0.000000 0.000000 0.000000 -5.140651 3.761708 -7.149745 15.204121 2.167820 3.706263 14.086072 3.425257 3.034066 -0.014088 -4.534866 1.164398 0.000000 0.000000 0.000000 13.171936 4.607309 2.205244 -46.595291 10.636327 -20.642766 37.213627 -34.212158 31.255540 0.000000 0.000000 0.000000 14.847650 3.945355 2.788258 0.357093 -7.996395 -5.236410 -2.870546 4.169591 -5.177065 -18.679094 3.376928 -63.416640 3.054351 -49.210116 -0.189732 0.000000 0.000000 0.000000 13.937532 4.530992 2.717372 0.947336 6.656610 12.186040 1.617498 4.134390 7.457213 -90.512123 4.951714 29.049300 -176.289313 73.677278 176.191642 0.000000 0.000000 0.000000 
2.374464 91.112564 109.304169 0.000000 0.000000 0.000000 -4.195798 -1.922122 -8.022816 -38.885408 -5.064347 18.366650 64.304462 8.762521 0.460052 2.297030 -6.273625 -5.120563 4.976172 -3.495667 -3.494057 0.000000 0.000000 0.000000 -3.290233 1.312204 -7.720263 -24.394086 1.055607 12.419771 46.129756 2.971759 -3.303608 -19.681583 -2.309222 -5.799864 3.334010 -0.625613 -0.151150 0.000000 0.000000 0.000000 -5.454314 4.401092 -7.956750 14.496897 1.674450 4.407030 13.201158 2.642358 2.976604 0.133465 -4.290785 1.216533 0.000000 0.000000 0.000000 12.393789 3.876913 2.139429 -45.465892 8.782714 -19.572226 35.808848 -34.935827 29.840086 0.000000 0.000000 0.000000 13.945020 3.225292 2.797962 0.598560 -8.124946 -4.854263 -2.423385 4.144160 -5.311924 -17.132338 4.399310 -63.076018 3.437449 -50.560588 0.150770 0.000000 0.000000 0.000000 13.094385 3.740242 2.660401 1.217397 4.970949 11.173506 2.145646 3.929334 7.199459 -97.513211 4.373747 28.583286 -176.431122 71.382198 176.289655 0.000000 0.000000 0.000000 
2.467473 90.784698 107.938553 0.000000 0.000000 0.000000 -4.753098 -2.321780 -8.634564 -36.401879 -5.921233 19.812574 69.620398 9.322980 0.462508 6.318589 -5.486770 -3.203916 8.245536 -2.947652 -9.389882 0.000000 0.000000 0.000000 -3.479309 1.720414 -8.373206 -24.540229 1.171629 12.661881 45.436215 3.156901 -3.226312 -18.584374 -2.368394 -5.381727 2.278448 -0.633615 -0.261869 0.000000 0.000000 0.000000 -5.676691 4.892024 -8.609296 13.831662 1.023507 4.943340 12.330528 1.885743 2.968493 0.395233 -4.051810 1.213152 0.000000 0.000000 0.000000 11.589135 3.194048 2.131430 -44.002486 7.172676 -18.770557 34.384740 -36.060940 28.696743 0.000000 0.000000 0.000000 13.054091 2.507718 2.848859 0.762798 -8.584333 -4.548859 -2.185448 4.220888 -5.552245 -15.165609 5.425274 -62.362154 3.650473 -52.338135 0.452200 0.000000 0.000000 0.000000 12.226551 3.007732 2.681088 1.435140 3.493291 9.810990 2.173766 3.699321 6.928813 -103.254203 4.484842 27.882318 -176.160428 70.798244 175.945031 0.000000 0.000000 0.000000 
2.610038 90.508636 106.554352 0.000000 0.000000 0.000000 -5.243726 -2.725682 -9.019975 -32.421586 -4.749004 21.044040 71.535180 9.388510 1.085015 7.791072 -5.277715 -2.217011 9.222105 -2.615549 -12.893328 0.000000 0.000000 0.000000 -3.594600 1.933357 -8.793925 -25.194401 1.245670 12.608068 44.487641 3.381494 -3.147113 -16.921720 -2.316615 -4.754467 1.592895 -0.606772 -0.606607 0.000000 0.000000 0.000000 -5.832637 5.247752 -8.997241 13.230097 0.254315 5.254398 11.476203 1.174554 2.988808 0.655849 -3.965023 1.145233 0.000000 0.000000 0.000000 10.745650 2.566263 2.160178 -42.243047 5.873868 -18.231373 33.180916 -37.308477 27.829925 0.000000 0.000000 0.000000 12.197851 1.807493 2.901239 0.853807 -9.256803 -4.377300 -2.166191 4.514629 -5.798362 -13.023532 6.490672 -61.377842 3.709790 -54.119502 0.716185 0.000000 0.000000 0.000000 11.385468 2.335792 2.752359 1.603733 2.172367 8.357280 1.814642 3.434809 6.653556 -107.065756 5.185197 26.896972 -175.653122 71.978808 175.355586 0.000000 0.000000 0.000000 
